# xmcd CD database file
#
# Track frame offsets:
#	150
#	72002
#	86125
#	126092
#	165810
#	189417
#	204880
#
# Disc length: 3258 seconds
#
# Revision: 0
# Processed by: cddbd v1.5.1PL0 Copyright (c) Steve Scherf et al.
# Submitted via: CDex 1.51
#
DISCID=4f0cb807
DTITLE=boni - échampard - two angels for cecil
DYEAR=2002
DGENRE=Jazz
TTITLE0=Two Angels for Cecil
TTITLE1=Gipsy Moon in the Milky Way
TTITLE2=The Naked Apes - Part 1 - Looking for the Funniest Way
TTITLE3=The Naked Apes - Part 2 - Did You Take your Pleasure -
TTITLE4=The Naked Apes - Part 3 - How Many Times a Day -
TTITLE5=Dancing up the Last Smile
TTITLE6=Tribute to the Tribe
EXTD=YEAR: 2002
EXTT0=
EXTT1=
EXTT2=
EXTT3=
EXTT4=
EXTT5=
EXTT6=
PLAYORDER=
